<?xml version="1.0" encoding="UTF-8"?>
<svg xmlns="http://www.w3.org/2000/svg" xmlns:xlink="http://www.w3.org/1999/xlink" viewBox="0 0 20 20" width="20px" height="20px">
<g id="surface333072765">
<path style=" stroke:none;fill-rule:nonzero;fill:rgb(100%,100%,100%);fill-opacity:1;" d="M 16.648438 4.308594 C 15.058594 3.027344 12.539062 2.808594 12.429688 2.800781 C 12.265625 2.789062 12.105469 2.882812 12.035156 3.035156 C 12.03125 3.046875 11.976562 3.171875 11.914062 3.367188 C 12.96875 3.546875 14.261719 3.90625 15.429688 4.632812 C 15.617188 4.746094 15.675781 4.992188 15.5625 5.179688 C 15.484375 5.304688 15.355469 5.371094 15.21875 5.371094 C 15.148438 5.371094 15.074219 5.351562 15.007812 5.3125 C 12.996094 4.0625 10.484375 4 10 4 C 9.515625 4 7 4.0625 4.992188 5.3125 C 4.804688 5.429688 4.554688 5.371094 4.441406 5.183594 C 4.324219 4.992188 4.382812 4.75 4.570312 4.632812 C 5.738281 3.90625 7.03125 3.546875 8.085938 3.371094 C 8.023438 3.171875 7.96875 3.046875 7.964844 3.035156 C 7.894531 2.882812 7.738281 2.785156 7.570312 2.800781 C 7.460938 2.808594 4.941406 3.027344 3.328125 4.324219 C 2.484375 5.105469 0.800781 9.660156 0.800781 13.601562 C 0.800781 13.671875 0.820312 13.738281 0.851562 13.796875 C 2.015625 15.84375 5.1875 16.375 5.914062 16.398438 C 5.914062 16.398438 5.921875 16.398438 5.925781 16.398438 C 6.054688 16.398438 6.171875 16.339844 6.25 16.234375 L 6.980469 15.230469 C 5.007812 14.71875 4 13.855469 3.941406 13.804688 C 3.773438 13.65625 3.757812 13.40625 3.90625 13.238281 C 4.050781 13.074219 4.304688 13.058594 4.46875 13.203125 C 4.492188 13.226562 6.351562 14.800781 10 14.800781 C 13.65625 14.800781 15.511719 13.21875 15.53125 13.203125 C 15.695312 13.058594 15.949219 13.074219 16.09375 13.242188 C 16.242188 13.40625 16.226562 13.65625 16.058594 13.804688 C 16 13.855469 14.992188 14.71875 13.019531 15.230469 L 13.75 16.234375 C 13.828125 16.339844 13.945312 16.398438 14.074219 16.398438 C 14.078125 16.398438 14.085938 16.398438 14.085938 16.398438 C 14.8125 16.375 17.984375 15.84375 19.148438 13.796875 C 19.179688 13.738281 19.199219 13.671875 19.199219 13.601562 C 19.199219 9.660156 17.515625 5.105469 16.648438 4.308594 Z M 7.398438 12 C 6.625 12 6 11.285156 6 10.398438 C 6 9.515625 6.625 8.800781 7.398438 8.800781 C 8.171875 8.800781 8.800781 9.515625 8.800781 10.398438 C 8.800781 11.285156 8.171875 12 7.398438 12 Z M 12.601562 12 C 11.828125 12 11.199219 11.285156 11.199219 10.398438 C 11.199219 9.515625 11.828125 8.800781 12.601562 8.800781 C 13.375 8.800781 14 9.515625 14 10.398438 C 14 11.285156 13.375 12 12.601562 12 Z M 12.601562 12 "/>
</g>
</svg>
